<svg width="64" height="64" viewBox="0 0 64 64" fill="none" xmlns="http://www.w3.org/2000/svg">
<g clip-path="url(#clip0_4463_53955)">
<rect width="64" height="64" rx="32" fill="#E0E0E0"/>
<path fill-rule="evenodd" clip-rule="evenodd" d="M55.6027 39.6351C54.9972 37.9544 55.4521 35.8265 54.204 34.4358C53.8349 34.2097 53.6391 34.3355 53.4872 34.7298C53.3955 35.2486 53.1806 37.0349 53.9535 37.0341C54.0507 38.1497 53.9899 39.2734 53.7519 40.3683C53.1815 40.276 52.7656 40.5715 52.3495 40.7912C52.0393 40.955 51.7289 41.0768 51.3542 40.9643C49.8073 40.6895 49.3664 42.3266 49.3476 43.6629C49.3249 44.3149 49.2641 45.8347 48.9792 46.4674C47.6894 43.7754 44.9806 42.5498 42.3995 41.9446C41.9949 41.8318 41.6497 41.6777 41.3902 41.4143C39.2155 40.549 40.2603 37.7139 39.2598 36.0845C37.6938 34.1474 35.8132 33.59 33.444 33.922C31.371 34.153 29.9619 36.2751 30.0897 38.2783C30.128 38.687 29.8846 39.1169 29.7414 39.5375C28.3106 41.263 26.0841 42.035 24.1691 43.0777C17.782 46.2238 15.5685 48.628 13.0864 55.3224C11.9252 57.8412 10.5356 60.2857 10.0741 63.0597C9.5318 66.3285 9.5301 69.6747 9.71889 72.9757C9.36643 73.0184 9.75 75.556 10.0592 76.435C10.1651 76.7363 10.4189 76.9535 10.7351 76.9485C11.3713 77.2601 12.8649 78.5158 13.5303 78.4742C15.6801 78.3407 17.7698 78.5471 19.841 78.4404C22.0818 78.325 24.301 77.9037 26.5514 77.9583C30.4758 78.0536 27.6661 78.2884 31.7263 78.4742C34.2894 78.5933 43.6402 77.1826 46.196 77.4129C48.2749 77.8536 49.2233 77.1106 48.9062 74.9219C48.7889 74.0829 48.4145 72.2171 49.6462 72.1378C50.2288 72.2059 50.7111 72.7927 51.1476 73.1356C55.0032 76.0284 58.942 73.9454 59.2523 69.1897C59.8367 65.2009 60.656 64.2586 58.8749 60.2754C53.24 45.4473 61.7297 47.4619 55.9977 40.5166C55.5501 40.9094 55.6638 39.8611 55.6027 39.6351Z" fill="white"/>
<path fill-rule="evenodd" clip-rule="evenodd" d="M53.4609 34.3259C53.7685 34.0213 54.2573 34.0971 54.5572 34.3679C54.8623 34.6429 55.046 35.0753 55.2027 35.4479C55.9058 37.1235 55.742 38.958 56.0977 40.711C56.7485 41.0653 57.336 41.5278 57.752 42.15C58.3841 43.0951 58.6839 44.1958 58.367 45.3159C58.2033 45.8955 57.9251 46.4326 57.7268 46.9997C57.5149 47.6036 57.3852 48.2311 57.323 48.8687C57.262 49.4945 57.2538 50.1237 57.2714 50.7518C57.2808 51.0771 57.2978 51.4018 57.3148 51.7265C57.3301 52.0175 57.3812 52.3211 57.3122 52.6063L57.3037 52.6391C57.3307 52.6349 57.3571 52.6296 57.3835 52.6237C57.6101 52.5728 57.8095 52.4936 58.046 52.5249C58.2303 52.5492 58.326 52.7041 58.2479 52.8792C58.2139 52.9555 58.1687 53.0193 58.1141 53.0738C58.5895 56.6165 59.4199 60.1023 59.9662 63.6338C60.2139 65.236 60.3647 66.843 60.2796 68.4652L60.2707 68.6261C60.1839 70.1155 59.9708 71.7569 59.2197 73.0595C58.8688 73.6693 58.3864 74.2104 57.8019 74.6001C57.5342 74.7788 57.2473 74.9183 56.9357 74.9881C55.3207 75.6363 53.6129 75.4772 52.09 74.6203C51.4052 74.2352 50.7221 73.7863 50.1628 73.2292C49.8911 72.9583 49.6288 72.6135 49.468 72.2368C49.4686 72.3214 49.4534 72.4078 49.4703 72.4911L49.5042 72.6559C49.7578 73.8802 50.7245 78.4047 50.7373 78.7845C50.7443 78.9895 49.0327 78.9846 48.847 78.9908L48.8418 78.9909C46.0697 79.1074 43.2959 79.0452 40.5253 78.9298L40.3066 78.9206C37.6197 78.8059 34.6958 78.6519 32.006 78.5729L32.0116 78.5276C32.0438 78.284 32.2005 77.2013 32.2179 77.1183L32.2186 77.1155C32.2948 76.8059 32.4419 75.8428 32.3645 75.5233C32.1651 74.7004 31.2666 74.8884 30.6345 74.9756L30.5013 74.9932C30.399 75.0074 30.15 75.0442 30.1523 75.0467C30.0852 74.9762 30.2449 74.7761 30.2843 74.7226L30.3158 74.6785C30.4856 74.439 30.6393 74.1901 30.6225 73.8815C30.5817 73.1275 29.5126 73.1701 28.9872 73.2223C28.9502 73.2259 28.9351 73.2843 28.9777 73.293L29.0814 73.3148C29.4147 73.3869 30.155 73.5707 30.1382 73.8486C30.1287 74.0065 29.9619 74.1229 29.8599 74.2223C29.7476 74.332 29.6359 74.4502 29.553 74.5848C29.3933 74.844 29.3571 75.1938 29.515 75.4636C29.6972 75.7749 30.0203 75.8112 30.3439 75.7829L30.3622 75.7812C30.4335 75.7745 30.5047 75.7676 30.5759 75.7606L31.0031 75.7185C31.1089 75.7081 31.4489 75.6184 31.5482 75.6803C31.6889 75.768 31.5197 76.157 31.4879 76.2851L31.4862 76.2942C31.459 76.4797 31.4426 78.4234 31.4399 78.5518C29.3437 78.5028 27.2472 78.0331 25.1511 78.1434C23.4858 78.2311 21.8251 78.3826 20.1629 78.5142L20.121 78.1546C19.6603 74.239 18.938 69.0724 19.2846 65.1995C19.3118 64.8963 18.8421 64.8982 18.8152 65.1995C18.4567 69.2043 19.2413 74.584 19.6977 78.5503C18.9902 78.6044 18.2823 78.6536 17.5736 78.6911L17.3929 78.7005C14.9814 78.8219 12.4923 78.8291 10.1323 78.2718C10.0595 78.2546 10.0349 78.1813 10.0501 78.1204C10.0267 78.134 9.99145 78.1263 9.98148 78.0931C9.70655 77.1798 9.56691 74.8544 9.44232 73.8481L9.43394 73.7822C9.30601 72.8046 9.23265 71.8157 9.17983 70.8321C9.07303 68.8644 9.08594 66.8944 9.2303 64.929C9.68981 58.6604 11.5196 52.3274 15.36 47.2895C16.2884 46.0718 17.3453 44.9575 18.6135 44.0958C19.8577 43.2501 21.2532 42.6545 22.6693 42.1707C23.6053 41.8507 24.556 41.5769 25.5067 41.3036C25.5427 41.2855 25.5787 41.2676 25.6149 41.25L25.6693 41.2239C26.0073 41.0623 26.34 40.8855 26.6863 40.7418L26.7628 40.7104C27.2645 40.5076 27.8491 40.3281 28.3923 40.3343C29.272 39.8878 30.0108 39.213 29.9392 38.1306C29.9099 37.6859 30.6024 37.6864 30.627 38.1306C30.6916 39.3123 29.9692 40.1504 29.0484 40.7128L29.0528 40.7173L29.0572 40.7223C29.201 40.8867 29.3547 41.0393 29.5208 41.1812C30.5149 42.0341 31.7726 42.7421 33.0296 43.2081C34.5044 43.7551 35.978 43.919 37.5032 43.4766C38.3007 43.2453 39.0537 42.8887 39.7456 42.4274C39.9568 42.2866 40.1593 42.1359 40.3535 41.9743C40.1699 41.7212 40.0231 41.4485 39.8999 41.1593C39.6523 40.5774 39.4474 39.789 39.7004 39.1745C39.7626 39.0231 40.0096 38.9296 40.0959 39.1224C40.3336 39.65 40.4328 40.2201 40.7098 40.7359C40.8154 40.9322 40.9369 41.1185 41.073 41.2942C41.073 41.3036 42.1129 41.4829 42.1129 41.4829C43.37 41.4823 44.5537 41.969 45.6658 42.577C46.3231 42.9365 46.9692 43.3188 47.6133 43.7016L48.8723 44.4501C48.965 44.5051 49.0689 44.5583 49.1728 44.6151C49.0513 44.0106 48.992 43.3944 49.0319 42.7834C49.0924 41.862 49.448 40.8542 50.3899 40.5259C50.8354 40.3704 51.3506 40.4183 51.7831 40.591C51.9827 40.6708 52.1998 40.7767 52.3852 40.918C52.4751 40.5111 52.8535 40.2059 53.2338 40.0712C53.3571 40.0273 53.4832 39.9995 53.6112 39.9859C53.6074 39.9206 53.607 39.8546 53.6079 39.7866L53.6088 39.7352C53.6147 39.4335 53.6123 39.1319 53.6059 38.8309C53.5942 38.2601 53.5672 37.7012 53.5097 37.1323C53.4616 36.6613 53.3782 36.1957 53.3163 35.7266L53.2906 35.5249C53.2384 35.1277 53.1507 34.633 53.4609 34.3259ZM15.6483 72.8387L15.5433 72.7759C15.1997 72.5715 14.8457 72.3831 14.4294 72.4777C14.0328 72.5678 13.7514 72.8923 13.6036 73.258C13.5338 73.4307 13.4973 73.6049 13.4704 73.789C13.4553 73.892 13.445 73.9959 13.4271 74.0986L13.4211 74.1303C13.4129 74.1712 13.4005 74.2281 13.3892 74.2775C13.281 74.2294 13.172 74.1533 13.0834 74.1081L13.012 74.072C12.8444 73.9879 12.67 73.9078 12.4874 73.8689C12.0917 73.7846 11.6528 73.9065 11.4266 74.2637C11.2332 74.5692 11.2371 74.9292 11.3111 75.2716L11.3164 75.2954C11.3485 75.4375 11.5144 76.0064 11.7557 75.9234C11.9904 75.8427 12.0217 75.5283 12.0395 75.3188L12.0408 75.2988C12.0489 75.1408 12.0178 74.8089 12.1953 74.749C12.4171 74.6741 12.8438 75.0162 13.0369 75.1057C13.3823 75.2655 13.7617 75.3127 14.0427 75.0017C14.2947 74.7229 14.3159 74.3148 14.3812 73.9612L14.398 73.8721C14.4326 73.6925 14.4995 73.4055 14.6968 73.4127C14.858 73.4188 15.035 73.5871 15.1679 73.667C15.3145 73.7552 15.4668 73.8287 15.626 73.8914C15.9974 74.0378 16.4104 74.0845 16.8055 74.0413C17.0344 74.0164 17.1835 73.9062 17.2644 73.6892C17.2918 73.6255 17.3127 73.5598 17.3271 73.4919C17.4554 73.0061 16.7545 72.6594 16.496 73.094C16.1979 73.0825 15.9203 73.0016 15.6483 72.8387ZM58.7876 69.5909C58.5739 69.4373 58.2836 69.4703 58.0926 69.6435L58.0812 69.6542C58.0283 69.7057 57.9089 69.8399 57.8316 69.9578L57.8074 69.9389C57.8035 69.9358 57.7997 69.9328 57.7961 69.9298L57.7856 69.9211C57.6276 69.7865 57.4626 69.6632 57.2593 69.6083C56.7296 69.4648 56.2482 69.8222 56.0169 70.2804C55.9072 70.4978 55.8603 70.7222 55.8056 70.9566L55.8009 70.9782C55.7789 71.0875 55.7502 71.3089 55.6552 71.363C55.6202 71.3829 55.541 71.3436 55.4626 71.298C55.2838 71.194 55.1233 71.0615 54.9481 70.9519C54.5369 70.6947 54.0697 70.5885 53.608 70.7739C53.1509 70.9573 52.8234 71.3901 52.8157 71.8946C52.81 72.2665 53.0571 72.9153 53.5221 72.87C53.6152 72.8609 53.7351 72.8031 53.7502 72.695C53.7903 72.4079 53.5656 72.0552 53.8232 71.8181C54.0724 71.5889 54.3305 71.7817 54.556 71.9406L54.7176 72.0549C54.98 72.2386 55.2503 72.4069 55.5826 72.4269C56.003 72.4522 56.3912 72.2183 56.6028 71.8576C56.794 71.5316 56.7968 71.1628 56.9464 70.828C56.979 70.7548 57.0633 70.6875 57.0353 70.6537C57.1486 70.7132 57.2948 70.8846 57.3654 70.9326C57.7169 71.1717 58.1868 71.1699 58.495 70.853C58.6178 70.7269 58.6959 70.5712 58.7868 70.4227C58.8197 70.369 58.8607 70.3194 58.8907 70.2641C58.9017 70.2438 58.9197 70.1684 58.9346 70.1011L58.9573 69.9943L58.9597 69.9768C58.9792 69.8151 58.9225 69.6878 58.7876 69.5909ZM45.2478 68.1794C44.8439 67.9657 44.3461 68.047 43.9823 68.3059C43.5744 68.5963 43.3742 69.0423 43.2381 69.5136C43.139 69.8568 43.0915 70.3301 42.8069 70.5786C42.4755 70.8678 41.9201 70.5608 41.5703 70.4468C41.1471 70.3089 40.6386 70.2525 40.2257 70.4564C39.8211 70.6564 39.6261 71.0642 39.5843 71.5011C39.5452 71.9088 39.6032 72.4458 39.834 72.787C39.8567 72.8206 39.9001 72.8119 39.9145 72.7763C40.0662 72.3999 40.037 71.9692 40.1601 71.5796C40.2917 71.1638 40.5999 71.0758 40.9912 71.1877C41.3993 71.3043 41.7731 71.5227 42.1929 71.6004C42.6404 71.6832 43.0836 71.5978 43.4364 71.2998C43.7332 71.049 43.913 70.6837 44.0344 70.3198C44.1528 69.965 44.1721 69.49 44.4242 69.1955C44.4878 69.1212 44.5987 69.0314 44.7016 69.0219C44.8546 69.0077 44.9099 69.1222 45.0334 69.21C45.3593 69.4417 45.8795 69.4464 46.079 69.0388C46.1443 68.9053 46.1767 68.7158 46.079 68.5851C45.9077 68.3562 45.767 68.3581 45.541 68.4076C45.5338 68.4015 45.5257 68.3936 45.5167 68.383L45.5098 68.3745C45.45 68.2982 45.3339 68.225 45.2478 68.1794ZM29.252 65.774C29.2386 65.4676 28.8726 65.1736 28.5838 65.3877C28.5372 65.4217 28.4914 65.4568 28.4464 65.4931L28.428 65.5132V65.5132C28.3743 65.513 28.3242 65.4988 28.2712 65.4817L28.1784 65.4517C27.9347 65.3738 27.7005 65.3111 27.4404 65.3685C26.9929 65.4676 26.709 65.8566 26.5632 66.2696C26.4274 66.6544 26.472 67.0471 26.4082 67.4417C26.3478 67.8158 26.1571 67.9619 25.7988 67.8817L25.7805 67.8775C25.068 67.7055 24.2562 67.2246 23.6315 67.8839C22.9567 68.5961 23.3981 69.7271 24.1368 70.1847C24.1691 70.2047 24.2048 70.1718 24.1974 70.1377C24.0993 69.6777 23.813 69.239 23.9089 68.7507C23.9754 68.4123 24.2088 68.2521 24.5417 68.3061C25.2421 68.4196 25.8971 68.9821 26.6155 68.5739C26.9743 68.3698 27.172 67.9867 27.2613 67.5942C27.3419 67.241 27.319 66.8426 27.4733 66.5094C27.6421 66.1448 27.9264 66.4092 28.2327 66.4589C28.6661 66.5294 29.275 66.3003 29.252 65.774ZM52.7497 54.8775C52.7511 54.573 52.2816 54.5727 52.2802 54.8775C52.2629 58.7349 50.4723 62.3004 50.1506 66.1195C50.1251 66.4229 50.5947 66.4212 50.6201 66.1195C50.9419 62.2993 52.7324 58.7411 52.7497 54.8775ZM13.9818 61.1921C13.7346 60.91 13.3725 60.9975 13.0784 61.1389C12.6366 61.3512 12.2139 61.5898 11.8086 61.8656C11.7089 61.9334 11.7717 62.0809 11.8891 62.0582C12.1863 62.0006 12.4757 61.9361 12.764 61.8426C12.9808 61.7725 13.2063 61.6706 13.4323 61.6345C13.4182 61.6869 13.401 61.7382 13.3808 61.7886C13.3437 61.892 13.3006 61.9932 13.264 62.0969C13.1913 62.3034 13.1258 62.5129 13.0622 62.7226L13.0306 62.8274C12.8985 63.267 12.7701 63.9067 13.3798 64.0421C13.6059 64.0922 13.8301 63.9929 14.0405 63.9148L14.0839 63.899L14.8514 63.6249C14.9428 63.5922 15.1122 63.5694 15.188 63.5122L15.1759 63.5709C15.1601 63.6488 15.1447 63.7253 15.1114 63.8029L15.0929 63.8458C14.9022 64.2814 14.6619 64.7172 14.8842 65.1987C15.0747 65.6112 15.525 65.807 15.9589 65.6898C16.3713 65.5786 16.6697 65.1106 16.4562 64.7035C16.3767 64.5517 16.1439 64.4775 15.996 64.5723L15.9563 64.5989C15.9097 64.6296 15.8295 64.6822 15.8275 64.6919C15.8165 64.6948 15.8049 64.6977 15.7932 64.7006C15.8181 64.6268 15.8349 64.5134 15.8567 64.4631L15.937 64.2793C16.0864 63.9339 16.2159 63.5825 16.1019 63.1951C15.7755 62.0858 14.6684 62.7165 13.8517 63.033C13.8636 62.9862 13.8754 62.9399 13.8854 62.8945C13.9206 62.7339 13.9591 62.5742 13.9972 62.4143L14.0753 62.0843C14.1457 61.7803 14.2004 61.4417 13.9818 61.1921ZM55.7656 59.9532C55.7663 59.9269 55.7343 59.9068 55.7118 59.9221C55.1897 60.2758 54.8404 61.0144 55.0366 61.6436C55.1318 61.9492 55.3344 62.2171 55.6188 62.3655C55.9724 62.5498 56.3628 62.4796 56.7343 62.4007L56.8921 62.3667C57.0033 62.3432 57.113 62.3259 57.2262 62.3574C57.2651 62.3682 57.3102 62.4023 57.3471 62.4096C57.3318 62.4358 57.3156 62.4811 57.3074 62.4979L57.2805 62.5525C57.2535 62.6079 57.2271 62.6653 57.2106 62.7235C57.1551 62.9183 57.1688 63.1276 57.2587 63.3095C57.4262 63.6482 57.7775 63.8392 58.1432 63.8716C58.3611 63.8911 58.9101 63.6988 59.0399 63.9318C59.2975 64.3941 60.0312 64.0832 59.8886 63.5712C59.7921 63.225 59.5186 63.0013 59.1797 62.9077C58.9991 62.8578 58.8122 62.8646 58.6286 62.885C58.5567 62.893 58.485 62.9042 58.4129 62.9119L58.3589 62.9169C58.3729 62.9158 58.2096 62.9118 58.144 62.9075L58.158 62.8695C58.1601 62.8641 58.162 62.8595 58.1636 62.8559C58.2366 62.6985 58.2907 62.5417 58.2863 62.3659C58.2783 62.0488 58.0747 61.7722 57.8071 61.6195C57.5604 61.4787 57.2667 61.4225 56.9863 61.4539C56.6781 61.4885 56.2401 61.7345 55.937 61.6049C55.7086 61.5072 55.6311 61.1665 55.6276 60.9432C55.6223 60.6069 55.7563 60.2882 55.7656 59.9532ZM34.4997 57.748C33.6597 57.3681 32.9384 58.017 32.4454 58.6379C32.42 58.6699 32.452 58.7239 32.492 58.6989L32.5575 58.6578C32.96 58.4034 33.4063 58.1028 33.905 58.1895C34.3566 58.2679 34.4684 58.5657 34.3785 58.9715L34.3521 59.0856C34.2566 59.5035 34.1834 59.9359 34.4213 60.3245C34.6459 60.6915 35.0841 60.8518 35.4945 60.8616C35.9679 60.8729 36.3765 60.651 36.8093 60.4962L36.8435 60.4842C37.0273 60.4202 37.6979 60.2531 37.7072 60.6337C37.7115 60.8077 37.5267 61.0121 37.4556 61.1685C37.3626 61.3731 37.3007 61.5881 37.3018 61.8153C37.3045 62.382 37.7737 62.8422 38.3288 62.5673C38.5446 62.4604 38.6002 62.1537 38.4876 61.9567C38.3292 61.6789 38.265 61.6933 38.376 61.4017L38.4081 61.3196C38.5447 60.9681 38.6536 60.6063 38.5 60.2374C38.1933 59.5007 37.2737 59.4114 36.6168 59.6554L36.5928 59.6645C36.1838 59.8242 34.9591 60.4639 35.0436 59.5593C35.0768 59.2029 35.1841 58.8612 35.1091 58.501C35.0393 58.1665 34.8077 57.8873 34.4997 57.748ZM30.4504 54.7226C30.297 54.4505 29.7822 54.5479 29.8249 54.8933L29.8386 55.0008C29.856 55.148 29.8598 55.2863 29.7589 55.4171C29.6365 55.576 29.4269 55.624 29.2367 55.5997C28.834 55.5483 28.5772 55.1721 28.134 55.2599C27.7743 55.3313 27.5259 55.6279 27.3821 55.9514C27.2298 56.2939 27.233 56.6653 27.1196 57.018C26.9889 57.4237 26.7103 57.405 26.3625 57.2631L26.2876 57.2321C25.9548 57.0926 25.6208 56.9377 25.25 57.0043C24.6341 57.1151 24.1037 58.0695 24.6808 58.5303C24.7849 58.6135 24.967 58.5701 24.9626 58.4128L24.962 58.3829C24.9591 58.0967 25.0307 57.7272 25.3563 57.6597C25.7015 57.5882 26.0916 57.9057 26.4122 57.9971C27.2426 58.2338 27.7156 57.604 27.8566 56.8591L27.8617 56.8305C27.9068 56.5698 27.9423 56.0873 28.2129 55.9652C28.3572 55.9001 28.5112 56.0603 28.6318 56.1249C28.8191 56.225 29.0202 56.2887 29.2322 56.3049C30.0163 56.3652 30.9073 55.5341 30.4504 54.7226ZM50.074 53.6928C49.8156 53.58 49.4303 53.6428 49.3671 53.9826L49.3288 54.1964C49.2538 54.6095 49.1342 55.126 48.7313 55.2748C48.4793 55.3678 48.1899 55.2047 47.9639 55.1053C47.6925 54.9858 47.4279 54.8833 47.1307 54.8549C46.5276 54.7973 46.0783 55.149 45.865 55.6985L45.8464 55.7475C45.6743 56.2092 45.4418 57.0924 45.8185 57.467C45.8735 57.5217 45.9844 57.5483 46.0519 57.4973C46.2744 57.329 46.3308 57.0524 46.4072 56.793L46.4138 56.7708C46.4949 56.5014 46.5614 56.2048 46.7078 55.9621C46.98 55.511 47.6901 56.0261 48.0317 56.145C48.5927 56.3403 49.1745 56.2262 49.6031 55.8083C49.8739 55.5444 50.034 55.2103 50.1441 54.8567C50.2144 54.8933 50.2874 54.925 50.3659 54.9464C50.6652 55.0281 51.0203 54.985 51.2482 54.7565C51.6759 54.3276 51.4439 53.5584 50.7918 53.6827C50.6634 53.7072 50.5791 53.8308 50.5638 53.9571L50.5551 53.977V53.977C50.391 53.9224 50.2116 53.7528 50.074 53.6928ZM19.8568 49.8614C19.2475 49.2297 18.1902 49.5721 17.7734 50.2422C17.687 50.3812 17.8298 50.5573 17.9815 50.5151C18.3443 50.4143 18.8561 50.0178 19.2395 50.2702C19.5236 50.4573 19.369 50.9462 19.343 51.2197L19.3393 51.2605C19.3064 51.6329 19.2989 52.1424 19.5867 52.4211C19.7524 52.5815 20.0064 52.5598 20.2248 52.5369L20.2943 52.5297C20.5518 52.5036 20.8076 52.4578 21.0542 52.3779C21.281 52.3046 21.4959 52.205 21.7089 52.0994L21.7622 52.0729C21.8565 52.0257 22.171 51.8388 22.2652 51.9563C22.3143 52.0175 22.1926 52.2859 22.1673 52.3458C22.0717 52.5709 21.9503 52.7828 21.8626 53.012C21.7082 53.4156 21.6953 53.871 21.9122 54.2562C22.1223 54.6295 22.5775 54.9319 22.9809 54.6451C23.2119 54.481 23.2113 54.1823 22.9809 54.018C22.8591 53.9311 22.7362 53.8737 22.6858 53.7279C22.6201 53.5377 22.7047 53.336 22.7865 53.16L22.8846 52.9506C23.1017 52.4829 23.3186 51.9451 23.0153 51.4671C22.702 50.9735 22.0653 50.9657 21.5837 51.1713C21.3088 51.2886 21.058 51.446 20.7716 51.5368C20.5734 51.5997 20.3744 51.6417 20.1714 51.6647C20.1262 51.4185 20.1902 51.143 20.1909 50.8984C20.1919 50.5269 20.1233 50.1377 19.8568 49.8614ZM51.2734 41.0743C50.2452 40.9223 49.7476 41.8491 49.6765 42.7415C49.6126 43.5518 49.7429 44.3644 49.9465 45.1523C50.0228 45.4444 50.1085 45.733 50.1983 46.0169C50.3426 46.4729 50.4993 46.9283 50.69 47.3671C50.7481 47.4996 50.8068 47.6327 50.8725 47.7604C51.0977 47.9465 51.2903 48.1971 51.4655 48.4379L51.5805 48.597V48.597L51.6114 48.6399C51.9089 49.0504 52.163 49.4762 52.3708 49.9393C52.5686 50.3803 52.7159 50.8401 52.8304 51.3095L52.8585 51.4267C52.9466 51.7879 53.0764 52.2191 52.9195 52.5552C53.2276 52.651 53.5339 52.7379 53.8614 52.7841C54.3133 52.8479 54.7833 52.8521 55.2393 52.8355C55.6799 52.8193 56.12 52.7846 56.5587 52.7375L56.8747 52.7024C56.9075 52.6987 56.9402 52.6948 56.9729 52.6906C56.9606 52.6752 56.95 52.6581 56.9424 52.6392C56.8298 52.3671 56.8443 52.0516 56.8318 51.759L56.8303 51.7266C56.8139 51.4019 56.8039 51.0772 56.7998 50.7519C56.7922 50.1415 56.8086 49.5294 56.8749 48.922C56.9324 48.3904 57.0222 47.8586 57.1625 47.3423C57.3039 46.8189 57.5198 46.3274 57.7194 45.8247C57.9166 45.3279 58.0792 44.8175 58.0615 44.2757C58.0504 43.9315 57.9752 43.5967 57.8479 43.2803C57.842 43.2851 57.8345 43.2886 57.8256 43.288C57.426 43.2732 57.0474 43.1567 56.6613 43.0585C56.2517 42.9539 55.8321 42.8681 55.413 42.8172L55.324 42.8067C54.9747 42.7672 54.5943 42.748 54.2716 42.8989C53.9224 43.0627 53.7024 43.4271 53.5697 43.7765L53.5549 43.8168C53.3193 44.4794 53.3733 45.3638 54.102 45.6774C54.3279 45.775 54.8438 45.8347 54.96 45.526C55.0122 45.3852 54.9048 45.1771 54.8643 45.044C54.8168 44.8855 54.7857 44.7293 54.7892 44.5637C54.7921 44.4185 54.9022 44.3089 55.0422 44.2972L55.0551 44.2964C55.3098 44.2852 55.835 43.9895 55.886 44.4153C55.896 44.4981 55.8332 44.585 55.7669 44.6253C55.6331 44.7051 55.4934 44.7584 55.3479 44.7909C55.3679 44.8796 55.396 44.9665 55.4237 45.0529C55.44 45.0446 55.4582 45.0393 55.4776 45.0375C55.693 45.0197 55.906 45.0541 56.1214 45.0564L56.2391 45.0572C56.4063 45.0589 56.552 45.0679 56.7141 45.1552C56.8637 45.2356 56.8373 45.4373 56.7141 45.5236C56.3907 45.7496 55.8432 45.6171 55.5064 45.3876C55.521 45.5041 55.514 45.623 55.4647 45.7478C55.3191 46.1181 54.9019 46.3026 54.5287 46.3185C54.1971 46.3327 53.8802 46.2274 53.6155 46.0429C53.5615 46.2375 53.4747 46.4244 53.4371 46.6261C53.3878 46.891 53.4465 47.2009 53.355 47.4499C53.2634 47.7008 52.9095 47.8687 52.7047 47.6226C52.4048 47.263 52.4981 46.6935 52.7616 46.3292C52.9019 46.1364 53.1566 45.9152 53.416 45.8803C53.2358 45.7094 53.0914 45.4982 53.0005 45.2652C52.994 45.2681 52.9864 45.2687 52.9782 45.2664C52.1349 45.034 51.676 44.2639 51.6478 43.4554C51.5856 43.5003 51.5211 43.5406 51.4535 43.5766C51.2922 43.6642 51.085 43.5873 51.0351 43.4057C50.9893 43.2366 51.1226 43.0278 51.3098 43.042C51.4166 43.0509 51.524 43.0514 51.6302 43.0337C51.6449 43.0313 51.6589 43.0284 51.6736 43.0254C51.683 42.9633 51.6953 42.9012 51.7106 42.8397C51.3919 42.8764 51.0586 42.8237 50.7505 42.7551C50.4852 42.6966 50.5468 42.2713 50.8139 42.2814L50.8568 42.2833C51.2071 42.3002 51.7243 42.3572 52.0245 42.1335C52.0774 42.0567 52.136 41.9839 52.1994 41.9153C52.2076 41.8982 52.2147 41.8799 52.2211 41.8609C52.3825 41.3925 51.6179 41.1251 51.2734 41.0743ZM42.0444 47.6637C41.6441 47.5559 41.2229 47.7028 40.9476 48.0074C40.7163 48.2635 40.5965 48.5779 40.4894 48.8992L40.4283 49.0841C40.3393 49.3459 40.237 49.5536 39.919 49.4538C39.5114 49.3259 39.158 49.1031 38.7148 49.1206C38.3118 49.1367 37.9175 49.3113 37.637 49.6041C37.3501 49.9035 37.2131 50.3207 37.274 50.7318L37.278 50.7569C37.3097 50.9463 37.5846 51.6222 37.8759 51.3111C38.0059 51.1723 37.9802 51.0187 38.0111 50.8424C38.0404 50.6744 38.1032 50.5097 38.2061 50.3735C38.3885 50.1321 38.6819 50.038 38.9687 50.1234C39.3469 50.2361 39.681 50.4683 40.0885 50.4738C40.5172 50.4796 40.8812 50.2555 41.1177 49.9038C41.3086 49.6199 41.3766 49.2875 41.511 48.9788L41.5239 48.9493C41.6367 48.6953 41.7136 48.6036 41.9719 48.7251L42.0622 48.7687C42.4489 48.9539 42.884 49.1234 43.2839 48.8623C43.6554 48.6197 43.8138 48.1323 43.5013 47.7774C43.3289 47.5814 42.9298 47.6148 42.8178 47.8661C42.7981 47.9094 42.7799 47.9532 42.7619 47.9971C42.7277 47.9866 42.6944 47.9738 42.6628 47.956C42.4532 47.8608 42.2712 47.7249 42.0444 47.6637ZM30.3597 44.7944C29.9031 44.5464 29.5219 45.0342 29.5948 45.4746L29.5984 45.4939C29.6011 45.5072 29.6072 45.5362 29.6149 45.5694C29.5916 45.5666 29.5685 45.5624 29.5455 45.5565L29.4395 45.5434C29.2727 45.5239 29.111 45.5138 28.9441 45.5677C28.5502 45.6951 28.3565 46.081 28.347 46.4765C28.3375 46.8706 28.5399 47.1885 28.5993 47.565C28.6601 47.9501 28.2647 47.8401 28.0065 47.8119L27.9964 47.8109C27.6372 47.7743 27.2596 47.7736 26.9612 48.0095C26.6529 48.2532 26.5163 48.6741 26.5599 49.0596C26.5992 49.4077 26.8153 49.9435 27.2069 49.9985C27.2455 50.0039 27.2896 49.9953 27.3094 49.9564C27.4677 49.6462 27.2474 49.3035 27.2723 48.9762C27.2997 48.6162 27.5275 48.5563 27.8415 48.5796C28.1462 48.6022 28.4502 48.6673 28.7512 48.5757C29.0778 48.4762 29.3147 48.1939 29.3818 47.8608C29.4556 47.4937 29.3198 47.1521 29.2318 46.8033C29.2025 46.6874 29.1881 46.5708 29.2083 46.4524C29.2126 46.4267 29.2347 46.4031 29.2427 46.393C29.2928 46.3835 29.3678 46.4077 29.4107 46.4123L29.4715 46.4184C29.8022 46.4485 30.1208 46.4283 30.3571 46.1529C30.4782 46.0118 30.5229 45.8394 30.5108 45.6574L30.5048 45.5839C30.4983 45.5132 30.4859 45.4199 30.4495 45.381L30.449 45.3791V45.3791C30.4612 45.3625 30.4729 45.3455 30.4835 45.3279L30.4938 45.31C30.5951 45.1398 30.5363 44.8903 30.3597 44.7944ZM53.7511 40.4768C53.2963 40.4768 52.8667 40.6264 52.5228 41.0339C52.6454 41.1516 52.7434 41.2882 52.7975 41.4485C52.9658 41.3556 53.1442 41.2829 53.3268 41.2314C53.8837 41.0747 54.6454 41.0771 55.1137 41.4621C55.359 41.6632 55.0897 42.0239 54.8256 41.9618C54.5891 41.9063 54.3837 41.8033 54.1354 41.7915C53.9201 41.7809 53.7088 41.8093 53.5022 41.8719C53.1871 41.9678 52.9007 42.1493 52.69 42.3995C52.6196 42.4835 52.558 42.5746 52.5063 42.6728C52.1131 43.4251 52.4095 44.5038 52.9523 45.1231C52.7393 44.4098 52.9518 43.5688 53.3761 42.978C53.8869 42.2666 54.6509 42.186 55.4558 42.297L55.4823 42.3007C56.261 42.4114 57.2252 42.6047 57.8074 43.1814C57.7493 43.0483 57.6824 42.9194 57.6072 42.7946C57.166 42.0624 56.4342 41.4911 55.6748 41.0836C55.5474 41.0144 55.4189 40.9505 55.291 40.8914C54.8045 40.666 54.2622 40.4768 53.7511 40.4768ZM54.0008 34.8891L53.999 34.8974C53.9987 34.8989 53.9983 34.9005 53.9979 34.9021C53.971 35.1426 54.0345 35.4186 54.0668 35.6613L54.0712 35.6958C54.1393 36.2482 54.2291 36.8012 54.2584 37.3577C54.287 37.8929 54.276 38.448 54.2122 38.9809L54.2027 39.0569C54.1651 39.3473 54.1428 39.6879 54.0455 39.986C54.4198 40.0221 54.7942 40.1434 55.1346 40.2723C55.2567 40.319 55.3782 40.3681 55.4991 40.4202C55.3476 39.6093 55.2667 38.7866 55.1023 37.9781L55.07 37.8172C54.8914 36.9229 54.7237 36.0227 54.262 35.2226C54.2003 35.1162 54.134 35.0269 54.0589 34.9316C54.0425 34.9098 54.0231 34.8956 54.0008 34.8891Z" fill="black"/>
<path fill-rule="evenodd" clip-rule="evenodd" d="M34.6982 15.0977C38.0304 15.0977 41.477 17.7007 42.6985 19.3617C43.7254 20.7583 44.2783 27.0733 44.2783 31.3411C44.2783 32.2337 44.7671 33.9162 44.6245 34.77C44.1018 37.8987 41.8246 40.5225 37.3177 40.5225C32.8107 40.5225 29.5793 38.7221 26.2294 33.8882C24.604 33.8882 23.8163 32.632 23.8049 30.6496C23.7934 28.6672 25.3738 27.946 25.3738 27.946C25.3738 27.946 24.8103 20.1225 26.2294 18.0857C27.6485 16.0488 31.366 15.0977 34.6982 15.0977Z" fill="white"/>
<path fill-rule="evenodd" clip-rule="evenodd" d="M33.2974 13.9905C35.4013 13.7758 37.4629 13.9562 39.5363 14.3294C39.6947 14.3584 39.7845 14.4631 39.8179 14.589C40.7945 14.634 41.7722 14.7062 42.7475 14.76C43.1014 14.7795 43.3021 15.132 43.1407 15.4502C43.1085 15.5134 43.0749 15.5749 43.0409 15.6364L43.0837 15.6222C43.3771 15.5274 43.694 15.4806 43.9799 15.6312C44.3437 15.8228 44.4864 16.2456 44.406 16.6348C44.3854 16.7341 44.3508 16.8294 44.3115 16.9223C44.3913 16.917 44.4717 16.9187 44.5515 16.9294C44.9764 16.9862 45.2921 17.3144 45.3144 17.7515C45.3473 18.4114 44.9254 19.081 44.4283 19.5535C44.5004 19.7032 44.5281 19.8794 44.4981 20.0581C44.4382 20.4111 44.1801 20.6226 43.8809 20.7605C44.0057 21.1598 44.0647 21.5772 44.0299 22.0038C44.0183 22.1462 43.8947 22.2639 43.7642 22.2927C44.2505 23.642 44.4966 25.0907 44.6736 26.5023C44.7998 27.5066 44.862 28.5167 44.8695 29.5286C44.8733 29.9855 44.8658 30.4428 44.8468 30.8997L44.8391 31.0711C44.8156 31.565 44.8144 32.0836 44.7264 32.5722C45.0269 33.0873 45.1478 33.7267 45.1988 34.3038C45.2622 35.0183 45.1619 35.7552 44.9382 36.4348C44.0943 39.0028 41.5474 40.6233 38.9893 41.0445C36.6214 41.4342 33.8813 40.9096 32.4975 38.742C32.4758 38.7077 32.5222 38.6793 32.5492 38.7018C33.5392 39.5132 34.6876 39.8751 35.9353 40.0514C38.0926 40.3554 40.5174 39.8397 42.2487 38.4723C43.0796 37.8158 43.6788 36.8601 43.9424 35.8315C44.0768 35.3058 44.1231 34.7575 44.0703 34.2164C44.0163 33.6675 43.7751 33.1991 43.6231 32.6804C43.5721 32.5053 43.6261 32.3427 43.7323 32.2268C43.7622 31.8056 43.8326 31.381 43.8596 30.9611C43.8895 30.4838 43.9078 30.0065 43.9142 29.5286C43.9265 28.5374 43.8855 27.5444 43.8027 26.5573C43.6513 24.7498 43.2493 22.9862 43.0134 21.1941C42.926 21.2731 42.8008 21.3055 42.6696 21.2365L42.656 21.229L42.5844 21.1877C42.5803 21.1877 42.5756 21.1883 42.5714 21.1888C42.0815 21.2368 41.5732 21.1682 41.1038 21.0208C40.6125 20.8671 40.1566 20.6306 39.7492 20.3153C39.6718 20.7109 39.6395 21.1107 39.639 21.5141C39.6384 21.7661 39.3737 21.8968 39.1636 21.7892C38.2323 21.3124 37.3426 20.763 36.4981 20.1456C36.3995 20.6548 36.3009 21.164 36.2017 21.6738C36.1636 21.8702 35.9153 21.9495 35.7563 21.856C35.1237 21.4851 34.5774 20.9996 34.1325 20.4223C34.0437 20.5935 33.9546 20.7646 33.865 20.9354L33.7299 21.1912C33.5967 21.4425 33.4183 21.7206 33.1267 21.8009C32.818 21.8861 32.5603 21.6845 32.4565 21.4029C32.4248 21.3154 32.3954 21.2255 32.3684 21.135C32.1055 21.7401 31.8086 22.3315 31.4729 22.8958C30.9694 23.742 30.3649 24.4961 29.7622 25.2697C29.5791 25.5046 29.2657 25.2803 29.2405 25.0521C29.2258 24.9179 29.2135 24.783 29.2029 24.6487C28.8517 25.3629 28.4853 26.0704 28.086 26.7575L28.1432 26.9832V26.9832C28.3079 27.6502 28.4447 28.322 28.5934 28.9925C28.6414 29.2089 28.5274 29.5182 28.2765 29.555C27.9769 29.5991 27.6934 29.7534 27.3865 29.6472C27.0518 29.5314 26.9856 29.2399 26.8276 28.9636C26.7961 28.9085 26.7595 28.8579 26.72 28.8099L26.71 28.823V28.823C26.6853 28.8556 26.6267 28.8201 26.6413 28.7829L26.6585 28.7398V28.7398C26.5228 28.5946 26.3603 28.4735 26.211 28.3432C25.8561 28.2829 25.4568 28.3489 25.2123 28.4943C24.6553 28.8254 24.3995 29.5079 24.3943 30.1355C24.3878 30.87 24.6137 31.6957 24.9951 32.3238C25.163 32.6 25.3931 32.8495 25.697 32.972C25.9987 33.0938 26.3256 33.056 26.6325 33.1707C26.8356 33.247 26.9606 33.4741 26.8379 33.6799C26.8297 33.6941 26.8203 33.7071 26.8115 33.7207L26.9027 33.8428C26.9655 33.9274 27.031 34.018 27.092 34.1122C27.2481 34.2933 27.4124 34.4677 27.5715 34.6457C27.8654 34.9739 28.1507 35.3111 28.44 35.644C28.7129 35.9581 29.0017 36.2532 29.2992 36.5436C29.5803 36.8187 29.9312 37.0499 30.1894 37.3433C30.4406 37.6295 30.5087 38.1292 30.0955 38.2949C29.6384 38.4786 29.2337 38.048 28.926 37.761L28.913 37.7489C28.349 37.2258 27.8396 36.628 27.435 35.9698C27.0343 36.2447 26.4548 36.2709 26.0558 35.9961C25.8458 35.8515 25.6847 35.6085 25.6064 35.3441C25.5326 35.3608 25.4588 35.3705 25.3869 35.3694C25.3498 35.3911 25.3127 35.4121 25.2751 35.4318C24.9775 35.5878 24.612 35.5181 24.4758 35.1863C24.3519 34.885 24.4796 34.5429 24.5913 34.2526L24.6143 34.1927C24.6777 34.0271 24.7475 33.8467 24.8344 33.677C24.5926 33.4936 24.386 33.2659 24.2112 33.0069C23.6237 32.1345 23.3303 30.8587 23.46 29.8179C23.538 29.1898 23.8308 28.5392 24.3103 28.1157L24.2927 28.0695V28.0695C24.1583 27.726 24.0362 27.3811 23.9571 27.018C23.8643 26.5934 23.8191 26.1534 23.7781 25.721C23.6912 24.8079 23.7147 23.874 23.8303 22.9644C24.0474 21.2522 24.5979 19.5713 25.575 18.1465C25.298 17.8123 25.0785 17.419 25.1929 16.9666C25.2452 16.759 25.3643 16.5621 25.5439 16.4432C25.643 16.3776 25.761 16.3675 25.8602 16.3131L25.89 16.2966C25.9336 16.2709 25.9003 16.2737 25.8743 16.1546C25.7716 15.679 25.8567 15.2195 26.3761 15.0616C26.8649 14.9132 27.3274 15.2284 27.6167 15.604C28.3737 15.0628 29.3714 14.7795 30.2487 14.5388C31.2464 14.2661 32.2698 14.0958 33.2974 13.9905ZM25.1196 29.9413C25.116 29.5539 25.4804 29.315 25.839 29.3783C26.0798 29.4205 26.2807 29.5654 26.4694 29.7151L26.5613 29.7884C26.791 29.9701 27.0547 30.1661 27.1917 30.4234C27.3924 30.8031 26.9681 31.314 26.572 31.0479C26.3003 30.8643 26.1261 30.5703 25.9479 30.2971L25.9294 30.2689C25.8484 30.1465 25.7774 30.0164 25.6664 29.9182L25.6425 29.8971C25.606 29.8657 25.5668 29.8371 25.5197 29.8236C25.4289 29.7973 25.2606 29.8341 25.2205 29.9432L25.2169 29.9543C25.2022 30.0094 25.1201 29.9975 25.1196 29.9413Z" fill="black"/>
<path d="M39.7041 33.21C40.4312 33.2064 41.5206 33.1844 42.2471 33.2275C42.4562 33.2402 42.5594 33.5413 42.5742 33.6846C42.7133 35.0147 41.6588 36.0763 40.4951 36.4873C39.4154 36.8686 37.9893 36.9411 37.0264 36.2285C36.608 35.9192 36.2915 35.49 36.085 35.0127C35.9735 34.7554 35.8919 34.4887 35.8467 34.2119C35.8121 34.0008 35.7464 33.7164 35.8232 33.5088C35.9289 33.2255 36.2229 33.2459 36.4746 33.2412C36.822 33.2341 37.1698 33.2248 37.5166 33.2207C38.2459 33.2124 38.9754 33.2129 39.7041 33.21ZM41.7207 33.5967C41.3938 33.6322 37.7841 33.6575 37.2266 33.6699C37.1428 33.6717 37.0549 33.6703 36.9658 33.668C36.9041 33.8605 37.064 34.2568 37.2363 34.3262C37.4088 34.395 38.868 34.4625 39.7295 34.4229C40.3168 34.3962 41.8402 34.0378 41.8408 33.8838C41.8408 33.7301 41.7764 33.5914 41.7207 33.5967ZM34.4209 30.1836C34.5332 30.1237 34.6388 30.202 34.6533 30.3184C34.6824 30.5518 34.56 30.7958 34.5537 31.0361C34.5471 31.2935 34.575 31.5513 34.5664 31.8086C34.5514 32.2579 34.4177 32.7091 34.1602 33.0791C33.8526 33.5207 33.0424 34.0029 32.6553 33.3643C32.377 32.9045 32.5953 32.2337 32.7979 31.79C32.9567 31.4423 33.1875 31.1201 33.4463 30.8408C33.6185 30.6549 33.9806 30.2367 34.2588 30.2783C34.2695 30.2799 34.2745 30.2934 34.2725 30.3027C34.2706 30.3108 34.2671 30.3185 34.2646 30.3262C34.3049 30.2684 34.3557 30.2184 34.4209 30.1836ZM34.2109 30.4258C34.1616 30.4851 34.0939 30.5328 34.0371 30.5908C33.9164 30.7141 33.7967 30.8379 33.6885 30.9727C33.491 31.2185 33.3275 31.4933 33.1982 31.7812C33.0441 32.1244 32.7908 32.7123 32.9717 33.0938C33.0687 33.2982 33.3179 33.2616 33.4863 33.1621C33.801 32.9762 33.987 32.5794 34.0752 32.2383C34.1733 31.858 34.1164 31.4721 34.1182 31.085C34.119 30.8871 34.1225 30.6258 34.2109 30.4258ZM43.376 29.5801C43.3816 29.4341 43.5271 29.3565 43.6533 29.4199C43.8698 29.5289 43.9616 29.7501 44.0811 29.9531C44.2197 30.1886 44.3585 30.4247 44.4971 30.6602C44.7416 31.0755 45.075 31.5189 45.1982 31.9912C45.3804 32.6895 44.7796 33.2015 44.1133 33.0518C43.418 32.8953 43.1593 32.0809 43.1738 31.4443C43.1815 31.1111 43.2591 30.7718 43.3242 30.4463C43.3625 30.255 43.3757 30.0473 43.4248 29.8555C43.3922 29.7646 43.3726 29.672 43.376 29.5801ZM40.0693 29.8633C42.3226 30.2534 41.1551 34.1648 38.2783 32.0186C37.9358 31.7401 38.3506 31.1268 38.7197 31.3652C39.1179 31.673 39.9262 32.3531 40.4873 31.7598C40.964 31.0868 40.2889 30.4532 39.8457 30.1816C39.7296 30.0977 39.8213 29.8203 40.0693 29.8633ZM43.625 30.8691C43.5489 31.392 43.495 32.0712 43.9238 32.4668C44.1054 32.6341 44.42 32.696 44.6309 32.5381C44.9394 32.3071 44.6156 31.8633 44.4717 31.626C44.2591 31.2756 44.0498 30.9235 43.8418 30.5703C43.8041 30.5064 43.759 30.4393 43.7129 30.3701C43.6851 30.5568 43.6443 30.7365 43.625 30.8691ZM35.4629 27.6533C36.1997 27.5333 36.9967 28.0226 37.2539 28.7275C37.3187 28.9053 37.2111 29.1249 37.0566 29.2158C36.8784 29.3207 36.688 29.2702 36.5361 29.1484C36.3321 28.9848 36.2349 28.7219 36.0107 28.5732C35.8211 28.4475 35.5666 28.4412 35.3486 28.4775C34.8361 28.5631 34.433 28.896 33.9648 29.0908C33.8992 29.1181 33.8607 29.0334 33.8828 28.9834C34.1665 28.3411 34.7586 27.7682 35.4629 27.6533ZM42.6084 27.625C43.1972 27.5741 43.8995 27.8309 44.0859 28.4414C44.0904 28.4561 44.0748 28.4735 44.0596 28.4678C43.7033 28.3347 43.3086 28.2546 42.9277 28.3223C42.6823 28.3661 42.1982 28.5408 42.1797 28.8242C42.1509 29.2614 41.6476 29.3688 41.4023 29.0361C41.1642 28.7126 41.3695 28.27 41.6328 28.0361C41.909 27.791 42.2441 27.6566 42.6084 27.625ZM35.9512 24.9854C36.292 24.9259 36.7159 24.8694 36.957 25.1455C37.0849 25.292 37.1289 25.5639 36.957 25.7041C36.6547 25.9506 36.3203 25.8551 35.958 25.876C35.6595 25.8933 35.3725 25.9435 35.085 26.0264C34.4543 26.2081 33.9401 26.5392 33.4014 26.9033C33.3307 26.9511 33.2584 26.8606 33.292 26.7939C33.603 26.18 34.2058 25.6757 34.8096 25.3682C35.1319 25.204 35.4852 25.0673 35.8418 25.0049L35.9512 24.9854ZM41.7441 24.7295L41.8281 24.7471C42.7458 24.9404 43.9385 25.3269 44.373 26.2354C44.3895 26.3635 44.3716 26.3912 44.3574 26.4092L44.3535 26.415C44.3418 26.4304 44.3316 26.4513 44.2764 26.4688C44.2612 26.4651 44.2459 26.4611 44.2305 26.457C44.0313 26.4044 43.8733 26.332 43.7207 26.2568L43.5557 26.1748C43.3637 26.08 43.17 25.9884 42.9648 25.9209C42.527 25.777 42.0765 25.6762 41.6191 25.6221C41.52 25.6103 41.4239 25.5763 41.3486 25.5186C41.2772 25.4637 41.2231 25.387 41.1982 25.2861C41.1661 25.1558 41.1749 25.057 41.2441 24.9395C41.2964 24.8509 41.3721 24.7891 41.458 24.7539C41.5455 24.7181 41.6451 24.7095 41.7441 24.7295Z" fill="black"/>
<path fill-rule="evenodd" clip-rule="evenodd" d="M44.8009 30.716C44.4058 31.2509 43.6732 31.4213 42.9976 31.3625C41.5404 31.2211 41.0818 29.5532 41.034 28.2569C42.0112 28.5339 40.9514 26.5719 44.2917 26.3561C45.4692 26.2572 45.1445 26.9739 45.6648 27.4976C45.6541 28.5966 45.4726 29.7907 44.8009 30.716M37.8609 29.4538C37.0006 33.5141 32.2894 32.5483 31.7945 28.8882C32.2515 28.5631 32.1312 27.7605 32.6989 27.4697C33.5986 26.8903 34.7234 26.9151 35.7452 26.9287C37.0512 27.0191 37.4234 27.5644 38.0943 28.1592C38.062 28.5566 37.9689 29.0275 37.8609 29.4538M46.6667 25.6839C46.6184 25.6758 46.5701 25.6681 46.5217 25.661C46.484 25.6394 46.4397 25.6228 46.3882 25.6128C46.2705 25.5827 46.1536 25.5624 46.037 25.5515C44.3626 25.1717 40.4889 25.7109 40.3291 27.1509C39.7958 27.3303 39.3345 27.1697 38.7164 27.1856C38.246 25.204 30.1132 25.4837 29.7221 26.6784C29.7206 26.678 29.7191 26.6777 29.7176 26.6772C29.3418 26.56 28.7877 26.5882 28.3576 26.5697C27.4391 26.5503 26.5196 26.6328 25.6209 26.828C23.9381 27.0975 21.6414 27.413 22.8118 29.5309C22.812 29.5312 22.8122 29.5316 22.8125 29.532L22.8127 29.5318C23.0144 29.7402 23.3567 29.5724 23.3694 29.2903C22.976 28.287 23.8647 28.1665 24.5485 27.8782C26.25 27.2622 27.9822 27.1768 29.742 27.3673C29.8744 27.5244 30.0752 27.6614 30.2876 27.7331C31.4642 27.9299 30.8441 28.8095 31.5878 28.9374C31.4512 32.0035 35.1449 33.6772 37.2851 31.6616C38.1396 30.8196 38.3433 29.5724 38.5414 28.4481C38.6462 28.4244 38.7128 28.3667 38.7517 28.2903C39.0036 28.0368 39.1619 27.8027 39.6601 27.7331C40.1583 27.6635 40.5418 27.8032 40.5937 27.8459C40.6068 27.8725 40.6208 27.8991 40.6371 27.9257C40.6599 27.9654 40.6909 27.997 40.7261 28.0219C40.2341 31.0751 42.586 33.0061 44.9604 31.4225C45.9921 30.4444 46.2101 28.947 46.2532 27.6105C46.393 27.5255 46.4816 27.3606 46.4332 27.1534C46.3664 26.8677 46.5229 26.6204 46.7721 26.4962C47.0958 26.3349 47.0386 25.7459 46.6667 25.6839" fill="black"/>
</g>
<defs>
<clipPath id="clip0_4463_53955">
<rect width="64" height="64" rx="32" fill="white"/>
</clipPath>
</defs>
</svg>
