<svg width="21" height="20" viewBox="0 0 21 20" fill="none" xmlns="http://www.w3.org/2000/svg">
<path d="M16.8872 2.5H15.0122V1.875C15.0122 1.70924 14.9464 1.55027 14.8291 1.43306C14.7119 1.31585 14.553 1.25 14.3872 1.25C14.2214 1.25 14.0625 1.31585 13.9453 1.43306C13.8281 1.55027 13.7622 1.70924 13.7622 1.875V2.5H7.51221V1.875C7.51221 1.70924 7.44636 1.55027 7.32915 1.43306C7.21194 1.31585 7.05297 1.25 6.88721 1.25C6.72145 1.25 6.56248 1.31585 6.44527 1.43306C6.32806 1.55027 6.26221 1.70924 6.26221 1.875V2.5H4.38721C4.05569 2.5 3.73774 2.6317 3.50332 2.86612C3.2689 3.10054 3.13721 3.41848 3.13721 3.75V16.25C3.13721 16.5815 3.2689 16.8995 3.50332 17.1339C3.73774 17.3683 4.05569 17.5 4.38721 17.5H16.8872C17.2187 17.5 17.5367 17.3683 17.7711 17.1339C18.0055 16.8995 18.1372 16.5815 18.1372 16.25V3.75C18.1372 3.41848 18.0055 3.10054 17.7711 2.86612C17.5367 2.6317 17.2187 2.5 16.8872 2.5ZM6.26221 3.75V4.375C6.26221 4.54076 6.32806 4.69973 6.44527 4.81694C6.56248 4.93415 6.72145 5 6.88721 5C7.05297 5 7.21194 4.93415 7.32915 4.81694C7.44636 4.69973 7.51221 4.54076 7.51221 4.375V3.75H13.7622V4.375C13.7622 4.54076 13.8281 4.69973 13.9453 4.81694C14.0625 4.93415 14.2214 5 14.3872 5C14.553 5 14.7119 4.93415 14.8291 4.81694C14.9464 4.69973 15.0122 4.54076 15.0122 4.375V3.75H16.8872V6.25H4.38721V3.75H6.26221ZM16.8872 16.25H4.38721V7.5H16.8872V16.25ZM11.5747 10.3125C11.5747 10.4979 11.5197 10.6792 11.4167 10.8333C11.3137 10.9875 11.1673 11.1077 10.996 11.1786C10.8247 11.2496 10.6362 11.2682 10.4543 11.232C10.2725 11.1958 10.1054 11.1065 9.97429 10.9754C9.84318 10.8443 9.75389 10.6773 9.71772 10.4954C9.68155 10.3135 9.70011 10.125 9.77107 9.95373C9.84203 9.78243 9.96219 9.63601 10.1164 9.533C10.2705 9.42998 10.4518 9.375 10.6372 9.375C10.8858 9.375 11.1243 9.47377 11.3001 9.64959C11.4759 9.8254 11.5747 10.0639 11.5747 10.3125ZM15.0122 10.3125C15.0122 10.4979 14.9572 10.6792 14.8542 10.8333C14.7512 10.9875 14.6048 11.1077 14.4335 11.1786C14.2622 11.2496 14.0737 11.2682 13.8918 11.232C13.71 11.1958 13.5429 11.1065 13.4118 10.9754C13.2807 10.8443 13.1914 10.6773 13.1552 10.4954C13.119 10.3135 13.1376 10.125 13.2086 9.95373C13.2795 9.78243 13.3997 9.63601 13.5539 9.533C13.708 9.42998 13.8893 9.375 14.0747 9.375C14.3233 9.375 14.5618 9.47377 14.7376 9.64959C14.9134 9.8254 15.0122 10.0639 15.0122 10.3125ZM8.13721 13.4375C8.13721 13.6229 8.08222 13.8042 7.97921 13.9583C7.8762 14.1125 7.72978 14.2327 7.55847 14.3036C7.38717 14.3746 7.19867 14.3932 7.01681 14.357C6.83495 14.3208 6.66791 14.2315 6.53679 14.1004C6.40568 13.9693 6.31639 13.8023 6.28022 13.6204C6.24405 13.4385 6.26261 13.25 6.33357 13.0787C6.40453 12.9074 6.52469 12.761 6.67886 12.658C6.83303 12.555 7.01429 12.5 7.19971 12.5C7.44835 12.5 7.6868 12.5988 7.86262 12.7746C8.03844 12.9504 8.13721 13.1889 8.13721 13.4375ZM11.5747 13.4375C11.5747 13.6229 11.5197 13.8042 11.4167 13.9583C11.3137 14.1125 11.1673 14.2327 10.996 14.3036C10.8247 14.3746 10.6362 14.3932 10.4543 14.357C10.2725 14.3208 10.1054 14.2315 9.97429 14.1004C9.84318 13.9693 9.75389 13.8023 9.71772 13.6204C9.68155 13.4385 9.70011 13.25 9.77107 13.0787C9.84203 12.9074 9.96219 12.761 10.1164 12.658C10.2705 12.555 10.4518 12.5 10.6372 12.5C10.8858 12.5 11.1243 12.5988 11.3001 12.7746C11.4759 12.9504 11.5747 13.1889 11.5747 13.4375ZM15.0122 13.4375C15.0122 13.6229 14.9572 13.8042 14.8542 13.9583C14.7512 14.1125 14.6048 14.2327 14.4335 14.3036C14.2622 14.3746 14.0737 14.3932 13.8918 14.357C13.71 14.3208 13.5429 14.2315 13.4118 14.1004C13.2807 13.9693 13.1914 13.8023 13.1552 13.6204C13.119 13.4385 13.1376 13.25 13.2086 13.0787C13.2795 12.9074 13.3997 12.761 13.5539 12.658C13.708 12.555 13.8893 12.5 14.0747 12.5C14.3233 12.5 14.5618 12.5988 14.7376 12.7746C14.9134 12.9504 15.0122 13.1889 15.0122 13.4375Z" fill="#999999"/>
</svg>
