<svg width="21" height="20" viewBox="0 0 21 20" fill="none" xmlns="http://www.w3.org/2000/svg">
<path d="M10.6372 1.875C9.03024 1.875 7.45935 2.35152 6.1232 3.24431C4.78705 4.1371 3.74565 5.40605 3.13069 6.8907C2.51573 8.37535 2.35483 10.009 2.66833 11.5851C2.98184 13.1612 3.75567 14.6089 4.89197 15.7452C6.02827 16.8815 7.47601 17.6554 9.0521 17.9689C10.6282 18.2824 12.2619 18.1215 13.7465 17.5065C15.2312 16.8916 16.5001 15.8502 17.3929 14.514C18.2857 13.1779 18.7622 11.607 18.7622 10C18.7599 7.84581 17.9032 5.78051 16.3799 4.25727C14.8567 2.73403 12.7914 1.87727 10.6372 1.875ZM10.6372 16.875C9.27746 16.875 7.94825 16.4718 6.81767 15.7164C5.68708 14.9609 4.80589 13.8872 4.28554 12.6309C3.76519 11.3747 3.62904 9.99237 3.89431 8.65875C4.15959 7.32513 4.81437 6.10013 5.77585 5.13864C6.73734 4.17715 7.96235 3.52237 9.29596 3.2571C10.6296 2.99183 12.0119 3.12798 13.2682 3.64833C14.5244 4.16868 15.5981 5.04987 16.3536 6.18045C17.109 7.31104 17.5122 8.64025 17.5122 10C17.5101 11.8227 16.7852 13.5702 15.4963 14.8591C14.2074 16.1479 12.4599 16.8729 10.6372 16.875ZM15.6372 10C15.6372 10.1658 15.5714 10.3247 15.4542 10.4419C15.3369 10.5592 15.178 10.625 15.0122 10.625H12.1458L14.2044 12.6828C14.2625 12.7409 14.3085 12.8098 14.34 12.8857C14.3714 12.9616 14.3876 13.0429 14.3876 13.125C14.3876 13.2071 14.3714 13.2884 14.34 13.3643C14.3085 13.4402 14.2625 13.5091 14.2044 13.5672C14.1463 13.6253 14.0774 13.6713 14.0015 13.7027C13.9257 13.7342 13.8443 13.7503 13.7622 13.7503C13.6801 13.7503 13.5988 13.7342 13.5229 13.7027C13.447 13.6713 13.3781 13.6253 13.32 13.5672L10.195 10.4422C10.1075 10.3548 10.0479 10.2434 10.0238 10.1221C9.9996 10.0008 10.012 9.87502 10.0593 9.76076C10.1067 9.64649 10.1869 9.54884 10.2897 9.48017C10.3926 9.41151 10.5135 9.3749 10.6372 9.375H15.0122C15.178 9.375 15.3369 9.44085 15.4542 9.55806C15.5714 9.67527 15.6372 9.83424 15.6372 10Z" fill="#999999"/>
</svg>

