<svg width="65" height="48" viewBox="0 0 65 48" fill="none" xmlns="http://www.w3.org/2000/svg">
<rect x="0.203125" width="64" height="48" rx="12" fill="white"/>
<path d="M40.4531 21.75V22.5C40.4515 23.769 39.9909 24.9946 39.1562 25.9504C38.3215 26.9063 37.1691 27.5278 35.9119 27.7003C36.4251 28.357 36.7036 29.1666 36.7031 30V33.75C36.7031 33.9489 36.6241 34.1397 36.4835 34.2803C36.3428 34.421 36.152 34.5 35.9531 34.5H29.9531C29.7542 34.5 29.5634 34.421 29.4228 34.2803C29.2821 34.1397 29.2031 33.9489 29.2031 33.75V32.25H26.9531C25.9586 32.25 25.0047 31.8549 24.3015 31.1517C23.5982 30.4484 23.2031 29.4946 23.2031 28.5C23.2031 27.9033 22.9661 27.331 22.5441 26.909C22.1222 26.4871 21.5499 26.25 20.9531 26.25C20.7542 26.25 20.5634 26.171 20.4228 26.0303C20.2821 25.8897 20.2031 25.6989 20.2031 25.5C20.2031 25.3011 20.2821 25.1103 20.4228 24.9697C20.5634 24.829 20.7542 24.75 20.9531 24.75C21.4456 24.75 21.9332 24.847 22.3882 25.0355C22.8432 25.2239 23.2566 25.5001 23.6048 25.8484C23.953 26.1966 24.2292 26.61 24.4177 27.0649C24.6061 27.5199 24.7031 28.0076 24.7031 28.5C24.7031 29.0968 24.9402 29.669 25.3621 30.091C25.7841 30.513 26.3564 30.75 26.9531 30.75H29.2031V30C29.2026 29.1666 29.4812 28.357 29.9944 27.7003C28.7371 27.5278 27.5848 26.9063 26.7501 25.9504C25.9154 24.9946 25.4547 23.769 25.4531 22.5V21.75C25.4625 20.8179 25.7107 19.9038 26.1741 19.095C25.9448 18.3555 25.8713 17.5765 25.9581 16.8072C26.0449 16.0378 26.2902 15.2948 26.6784 14.625C26.7443 14.511 26.839 14.4163 26.953 14.3505C27.0671 14.2846 27.1964 14.25 27.3281 14.25C28.2017 14.2482 29.0636 14.4507 29.8449 14.8414C30.6263 15.232 31.3054 15.8001 31.8281 16.5H34.0781C34.6008 15.8001 35.28 15.232 36.0613 14.8414C36.8427 14.4507 37.7045 14.2482 38.5781 14.25C38.7098 14.25 38.8392 14.2846 38.9532 14.3505C39.0673 14.4163 39.162 14.511 39.2278 14.625C39.6161 15.2948 39.8614 16.0379 39.948 16.8072C40.0347 17.5766 39.9609 18.3556 39.7313 19.095C40.1955 19.9035 40.4441 20.8178 40.4531 21.75Z" fill="#F54100"/>
</svg>
