<svg width="65" height="48" viewBox="0 0 65 48" fill="none" xmlns="http://www.w3.org/2000/svg">
<rect x="0.601562" width="64" height="48" rx="12" fill="white"/>
<path d="M37.1016 14.25H28.1016C26.7096 14.2515 25.3751 14.8051 24.3909 15.7893C23.4067 16.7736 22.8531 18.1081 22.8516 19.5V28.5C22.8531 29.8919 23.4067 31.2264 24.3909 32.2107C25.3751 33.1949 26.7096 33.7485 28.1016 33.75H37.1016C38.4935 33.7485 39.828 33.1949 40.8122 32.2107C41.7965 31.2264 42.3501 29.8919 42.3516 28.5V19.5C42.3501 18.1081 41.7965 16.7736 40.8122 15.7893C39.828 14.8051 38.4935 14.2515 37.1016 14.25ZM32.6016 28.5C31.7115 28.5 30.8415 28.2361 30.1015 27.7416C29.3615 27.2471 28.7847 26.5443 28.4441 25.7221C28.1035 24.8998 28.0144 23.995 28.188 23.1221C28.3617 22.2492 28.7902 21.4474 29.4196 20.818C30.0489 20.1887 30.8507 19.7601 31.7237 19.5865C32.5966 19.4128 33.5014 19.5019 34.3236 19.8425C35.1459 20.1831 35.8487 20.7599 36.3432 21.4999C36.8376 22.24 37.1016 23.11 37.1016 24C37.1003 25.1931 36.6258 26.337 35.7822 27.1806C34.9385 28.0243 33.7947 28.4988 32.6016 28.5ZM38.2266 19.5C38.0041 19.5 37.7866 19.434 37.6015 19.3104C37.4165 19.1868 37.2723 19.0111 37.1872 18.8055C37.102 18.6 37.0798 18.3738 37.1232 18.1555C37.1666 17.9373 37.2737 17.7368 37.4311 17.5795C37.5884 17.4222 37.7889 17.315 38.0071 17.2716C38.2253 17.2282 38.4515 17.2505 38.6571 17.3356C38.8626 17.4208 39.0383 17.565 39.162 17.75C39.2856 17.935 39.3516 18.1525 39.3516 18.375C39.3516 18.6734 39.233 18.9595 39.0221 19.1705C38.8111 19.3815 38.5249 19.5 38.2266 19.5Z" fill="#F54100"/>
</svg>
