<svg width="64" height="48" viewBox="0 0 64 48" fill="none" xmlns="http://www.w3.org/2000/svg">
<rect width="64" height="48" rx="12" fill="#C4EAF3"/>
<path d="M40.25 14.25H23.75C23.3522 14.25 22.9706 14.408 22.6893 14.6893C22.408 14.9706 22.25 15.3522 22.25 15.75V32.25C22.25 32.6478 22.408 33.0294 22.6893 33.3107C22.9706 33.592 23.3522 33.75 23.75 33.75H40.25C40.6478 33.75 41.0294 33.592 41.3107 33.3107C41.592 33.0294 41.75 32.6478 41.75 32.25V15.75C41.75 15.3522 41.592 14.9706 41.3107 14.6893C41.0294 14.408 40.6478 14.25 40.25 14.25ZM29 28.5C29 28.6989 28.921 28.8897 28.7803 29.0303C28.6397 29.171 28.4489 29.25 28.25 29.25C28.0511 29.25 27.8603 29.171 27.7197 29.0303C27.579 28.8897 27.5 28.6989 27.5 28.5V22.5C27.5 22.3011 27.579 22.1103 27.7197 21.9697C27.8603 21.829 28.0511 21.75 28.25 21.75C28.4489 21.75 28.6397 21.829 28.7803 21.9697C28.921 22.1103 29 22.3011 29 22.5V28.5ZM28.25 21C28.0275 21 27.81 20.934 27.625 20.8104C27.44 20.6868 27.2958 20.5111 27.2106 20.3055C27.1255 20.1 27.1032 19.8738 27.1466 19.6555C27.19 19.4373 27.2972 19.2368 27.4545 19.0795C27.6118 18.9222 27.8123 18.815 28.0305 18.7716C28.2488 18.7282 28.475 18.7505 28.6805 18.8356C28.8861 18.9208 29.0618 19.065 29.1854 19.25C29.309 19.435 29.375 19.6525 29.375 19.875C29.375 20.1734 29.2565 20.4595 29.0455 20.6705C28.8345 20.8815 28.5484 21 28.25 21ZM37.25 28.5C37.25 28.6989 37.171 28.8897 37.0303 29.0303C36.8897 29.171 36.6989 29.25 36.5 29.25C36.3011 29.25 36.1103 29.171 35.9697 29.0303C35.829 28.8897 35.75 28.6989 35.75 28.5V25.125C35.75 24.6277 35.5525 24.1508 35.2008 23.7992C34.8492 23.4475 34.3723 23.25 33.875 23.25C33.3777 23.25 32.9008 23.4475 32.5492 23.7992C32.1975 24.1508 32 24.6277 32 25.125V28.5C32 28.6989 31.921 28.8897 31.7803 29.0303C31.6397 29.171 31.4489 29.25 31.25 29.25C31.0511 29.25 30.8603 29.171 30.7197 29.0303C30.579 28.8897 30.5 28.6989 30.5 28.5V22.5C30.5009 22.3163 30.5693 22.1393 30.692 22.0026C30.8148 21.866 30.9834 21.7791 31.166 21.7585C31.3485 21.7379 31.5323 21.7851 31.6824 21.891C31.8325 21.9969 31.9385 22.1542 31.9803 22.3331C32.4877 21.9889 33.0792 21.7895 33.6914 21.7561C34.3036 21.7228 34.9133 21.8568 35.455 22.1438C35.9968 22.4308 36.4501 22.86 36.7664 23.3852C37.0826 23.9105 37.2498 24.5119 37.25 25.125V28.5Z" fill="#1362E8"/>
</svg>
