<svg width="21" height="20" viewBox="0 0 21 20" fill="none" xmlns="http://www.w3.org/2000/svg">
<path d="M9.38721 6.25C9.38721 6.00277 9.46052 5.7611 9.59787 5.55554C9.73522 5.34998 9.93045 5.18976 10.1589 5.09515C10.3873 5.00054 10.6386 4.97579 10.8811 5.02402C11.1235 5.07225 11.3463 5.1913 11.5211 5.36612C11.6959 5.54093 11.815 5.76366 11.8632 6.00614C11.9114 6.24861 11.8867 6.49995 11.7921 6.72835C11.6974 6.95676 11.5372 7.15199 11.3317 7.28934C11.1261 7.42669 10.8844 7.5 10.6372 7.5C10.3057 7.5 9.98774 7.3683 9.75332 7.13388C9.5189 6.89946 9.38721 6.58152 9.38721 6.25ZM5.63721 6.25C5.63721 4.92392 6.16399 3.65215 7.10167 2.71447C8.03935 1.77678 9.31112 1.25 10.6372 1.25C11.9633 1.25 13.2351 1.77678 14.1727 2.71447C15.1104 3.65215 15.6372 4.92392 15.6372 6.25C15.6372 10.9336 11.1388 13.5578 10.9497 13.668C10.8553 13.722 10.7483 13.7504 10.6396 13.7504C10.5308 13.7504 10.4238 13.722 10.3294 13.668C10.1356 13.5578 5.63721 10.9375 5.63721 6.25ZM6.88721 6.25C6.88721 9.54688 9.68721 11.7352 10.6372 12.3828C11.5864 11.7359 14.3872 9.54688 14.3872 6.25C14.3872 5.25544 13.9921 4.30161 13.2889 3.59835C12.5856 2.89509 11.6318 2.5 10.6372 2.5C9.64265 2.5 8.68882 2.89509 7.98556 3.59835C7.2823 4.30161 6.88721 5.25544 6.88721 6.25ZM16.4786 11.5336C16.3248 11.4828 16.1572 11.4937 16.0113 11.564C15.8653 11.6343 15.7524 11.7585 15.6963 11.9105C15.6401 12.0625 15.6452 12.2303 15.7104 12.3786C15.7756 12.5269 15.8959 12.6441 16.0458 12.7055C17.3356 13.1828 18.1372 13.8219 18.1372 14.375C18.1372 15.4187 15.2841 16.875 10.6372 16.875C5.99033 16.875 3.13721 15.4187 3.13721 14.375C3.13721 13.8219 3.93877 13.1828 5.22861 12.7063C5.37854 12.6449 5.49879 12.5277 5.56399 12.3794C5.6292 12.2311 5.63428 12.0633 5.57815 11.9113C5.52202 11.7593 5.40908 11.6351 5.26313 11.5648C5.11718 11.4945 4.94963 11.4836 4.7958 11.5344C2.92002 12.2258 1.88721 13.2352 1.88721 14.375C1.88721 16.8109 6.3958 18.125 10.6372 18.125C14.8786 18.125 19.3872 16.8109 19.3872 14.375C19.3872 13.2352 18.3544 12.2258 16.4786 11.5336Z" fill="#999999"/>
</svg>
