<svg width="21" height="20" viewBox="0 0 21 20" fill="none" xmlns="http://www.w3.org/2000/svg">
<path d="M13.4114 1.93815C13.3063 1.88694 13.189 1.86623 13.0727 1.87839C12.9564 1.89054 12.8459 1.93507 12.7536 2.0069L7.29736 6.24987H3.76221C3.43069 6.24987 3.11274 6.38157 2.87832 6.61599C2.6439 6.85041 2.51221 7.16835 2.51221 7.49987V12.4999C2.51221 12.8314 2.6439 13.1493 2.87832 13.3838C3.11274 13.6182 3.43069 13.7499 3.76221 13.7499H7.29736L12.7536 17.9928C12.8459 18.0646 12.9566 18.1091 13.0729 18.1211C13.1892 18.1331 13.3066 18.1123 13.4117 18.0609C13.5167 18.0096 13.6053 17.9298 13.6673 17.8306C13.7292 17.7314 13.7621 17.6168 13.7622 17.4999V2.49987C13.7622 2.38279 13.7293 2.26805 13.6673 2.16874C13.6053 2.06942 13.5166 1.98953 13.4114 1.93815ZM12.5122 16.2217L7.8958 12.6319C7.78635 12.5461 7.65126 12.4996 7.51221 12.4999H3.76221V7.49987H7.51221C7.65126 7.5001 7.78635 7.4536 7.8958 7.36784L12.5122 3.778V16.2217ZM20.4544 11.4327C20.5717 11.55 20.6376 11.709 20.6376 11.8749C20.6376 12.0407 20.5717 12.1998 20.4544 12.3171C20.3371 12.4343 20.1781 12.5002 20.0122 12.5002C19.8464 12.5002 19.6873 12.4343 19.57 12.3171L18.1372 10.8835L16.7044 12.3171C16.5871 12.4343 16.4281 12.5002 16.2622 12.5002C16.0964 12.5002 15.9373 12.4343 15.82 12.3171C15.7027 12.1998 15.6369 12.0407 15.6369 11.8749C15.6369 11.709 15.7027 11.55 15.82 11.4327L17.2536 9.99987L15.82 8.56706C15.7027 8.44979 15.6369 8.29073 15.6369 8.12487C15.6369 7.95902 15.7027 7.79996 15.82 7.68269C15.9373 7.56541 16.0964 7.49953 16.2622 7.49953C16.4281 7.49953 16.5871 7.56541 16.7044 7.68269L18.1372 9.11628L19.57 7.68269C19.6873 7.56541 19.8464 7.49953 20.0122 7.49953C20.1781 7.49953 20.3371 7.56541 20.4544 7.68269C20.5717 7.79996 20.6376 7.95902 20.6376 8.12487C20.6376 8.29073 20.5717 8.44979 20.4544 8.56706L19.0208 9.99987L20.4544 11.4327Z" fill="white"/>
</svg>
