<svg width="76" height="72" viewBox="0 0 76 72" fill="none" xmlns="http://www.w3.org/2000/svg">
<rect x="14.8481" y="-31.4452" width="125.933" height="19" rx="9.5" transform="rotate(45 14.8481 -31.4452)" fill="white" fill-opacity="0.72"/>
<rect x="14.8481" y="-31.4452" width="125.933" height="19" rx="9.5" transform="rotate(45 14.8481 -31.4452)" stroke="#007083"/>
<path d="M42.1796 15.0968C42.0664 14.9837 42.0098 14.8592 42.0098 14.7234C42.0155 14.5933 42.0777 14.4689 42.1965 14.3501L47.5168 9.02981C47.6469 8.8997 47.777 8.83182 47.9071 8.82616C48.0372 8.82051 48.1532 8.86859 48.255 8.97041C48.3512 9.06658 48.4077 9.15709 48.4247 9.24194C48.4417 9.3268 48.4389 9.44276 48.4162 9.58984L47.2453 17.9563L47.0331 17.7442L51.6491 13.1282C51.7736 13.0038 51.898 12.9415 52.0225 12.9415C52.1582 12.9415 52.2855 13.0009 52.4043 13.1197C52.5231 13.2385 52.5797 13.363 52.574 13.4931C52.574 13.6175 52.5118 13.742 52.3873 13.8664L47.0501 19.2037C46.9313 19.3225 46.8069 19.3847 46.6767 19.3903C46.5523 19.4017 46.442 19.3592 46.3458 19.2631C46.2553 19.1726 46.1987 19.0764 46.1761 18.9746C46.1535 18.8841 46.1535 18.7653 46.1761 18.6182L47.3556 10.2602L47.5507 10.4553L42.9263 15.0798C42.8075 15.1986 42.683 15.2608 42.5529 15.2665C42.4228 15.2721 42.2983 15.2156 42.1796 15.0968ZM49.606 22.5571C49.1591 22.1102 48.8593 21.6407 48.7065 21.1486C48.5651 20.6564 48.5651 20.1643 48.7065 19.6721C48.8536 19.1743 49.1449 18.7076 49.5805 18.2721C50.0104 17.8422 50.4715 17.5508 50.9636 17.3981C51.4614 17.251 51.9507 17.2369 52.4316 17.3557C52.918 17.4801 53.3565 17.7375 53.7468 18.1278C54.024 18.405 54.2248 18.702 54.3492 19.0188C54.485 19.3356 54.5444 19.6608 54.5274 19.9946C54.5105 20.3283 54.4143 20.6621 54.2389 20.9958C54.0749 21.3296 53.8345 21.6549 53.5177 21.9717C53.4272 22.0622 53.3282 22.1046 53.2207 22.0989C53.1245 22.0933 53.0255 22.0395 52.9237 21.9377L50.0217 19.0357L50.5139 18.5436L53.2207 21.2504L52.9576 21.2249C53.2518 20.9308 53.4554 20.6366 53.5686 20.3425C53.693 20.0483 53.7242 19.7627 53.6619 19.4855C53.6054 19.2139 53.4526 18.9537 53.2037 18.7048C52.9322 18.4333 52.6352 18.2664 52.3128 18.2042C51.996 18.1363 51.6707 18.1674 51.337 18.2975C51.0089 18.422 50.6949 18.6341 50.3951 18.9339L50.3442 18.9848C49.8351 19.494 49.572 20.0002 49.555 20.5037C49.5381 21.0072 49.7587 21.488 50.2169 21.9462C50.3979 22.1272 50.6044 22.2884 50.8363 22.4299C51.0739 22.5769 51.3398 22.6788 51.6339 22.7353C51.7697 22.7693 51.8687 22.823 51.9309 22.8966C52.0045 22.9701 52.0412 23.0521 52.0412 23.1426C52.0469 23.2275 52.0243 23.3067 51.9734 23.3802C51.9281 23.4481 51.8574 23.5018 51.7612 23.5414C51.6651 23.581 51.5519 23.5867 51.4218 23.5584C51.105 23.5018 50.7798 23.3802 50.446 23.1935C50.1236 23.0069 49.8435 22.7947 49.606 22.5571ZM53.3679 26.2851C53.2604 26.1776 53.1925 26.0588 53.1642 25.9287C53.1416 25.7929 53.1699 25.6402 53.2491 25.4705L55.3534 20.8375C55.4213 20.6905 55.5033 20.5858 55.5995 20.5236C55.6957 20.4614 55.7975 20.4387 55.905 20.4557C56.0124 20.4727 56.1171 20.5321 56.2189 20.6339C56.3151 20.7301 56.3688 20.8291 56.3801 20.9309C56.3914 21.0327 56.3575 21.1628 56.2783 21.3212L54.174 25.7336L53.9703 25.5299L58.4336 23.4425C58.575 23.3803 58.6994 23.3577 58.8069 23.3746C58.9257 23.3916 59.0332 23.4482 59.1294 23.5443C59.2312 23.6462 59.2906 23.7565 59.3076 23.8753C59.3302 23.9884 59.3047 24.11 59.2312 24.2401L57.1268 28.6864L56.9317 28.4913L61.378 26.3869C61.5307 26.3134 61.658 26.2879 61.7598 26.3105C61.8673 26.3275 61.9663 26.3813 62.0568 26.4718C62.1586 26.5736 62.2095 26.6754 62.2095 26.7772C62.2095 26.8791 62.1699 26.9752 62.0907 27.0657C62.0228 27.1562 61.9267 27.2298 61.8022 27.2864L57.1693 29.3907C57.0109 29.4699 56.861 29.4954 56.7195 29.4671C56.5838 29.4444 56.4622 29.3794 56.3547 29.2719C56.2472 29.1644 56.1793 29.04 56.151 28.8986C56.1284 28.7628 56.1539 28.6129 56.2274 28.4488L58.3402 23.9092L58.7306 24.2995L54.1909 26.4124C54.0269 26.4859 53.877 26.5114 53.7412 26.4887C53.6054 26.4661 53.481 26.3982 53.3679 26.2851Z" fill="#007083"/>
</svg>
