<svg width="65" height="48" viewBox="0 0 65 48" fill="none" xmlns="http://www.w3.org/2000/svg">
<rect x="0.398438" width="64" height="48" rx="12" fill="#C4EAF3"/>
<path d="M33.1484 18.7504C33.1484 18.5515 33.2275 18.3607 33.3681 18.2201C33.5088 18.0794 33.6995 18.0004 33.8984 18.0004H38.8381L37.1178 16.281C37.0481 16.2114 36.9929 16.1286 36.9552 16.0376C36.9174 15.9465 36.898 15.849 36.898 15.7504C36.898 15.6519 36.9174 15.5543 36.9552 15.4632C36.9929 15.3722 37.0481 15.2895 37.1178 15.2198C37.1875 15.1501 37.2702 15.0948 37.3613 15.0571C37.4523 15.0194 37.5499 15 37.6484 15C37.747 15 37.8446 15.0194 37.9356 15.0571C38.0267 15.0948 38.1094 15.1501 38.1791 15.2198L41.1791 18.2198C41.2488 18.2894 41.3041 18.3722 41.3419 18.4632C41.3796 18.5543 41.399 18.6519 41.399 18.7504C41.399 18.849 41.3796 18.9466 41.3419 19.0376C41.3041 19.1287 41.2488 19.2114 41.1791 19.281L38.1791 22.281C38.0383 22.4218 37.8475 22.5008 37.6484 22.5008C37.4494 22.5008 37.2586 22.4218 37.1178 22.281C36.9771 22.1403 36.898 21.9494 36.898 21.7504C36.898 21.5514 36.9771 21.3605 37.1178 21.2198L38.8381 19.5004H33.8984C33.6995 19.5004 33.5088 19.4214 33.3681 19.2807C33.2275 19.1401 33.1484 18.9493 33.1484 18.7504ZM40.4947 27.606L36.0781 25.627L36.0678 25.6214C35.8384 25.5231 35.5881 25.4837 35.3396 25.5066C35.0911 25.5295 34.8523 25.6141 34.6447 25.7526C34.6203 25.7687 34.5968 25.7863 34.5744 25.8051L32.2925 27.7504C30.8469 27.0482 29.3544 25.567 28.6522 24.1401L30.6003 21.8235C30.6191 21.8001 30.6369 21.7767 30.6538 21.7514C30.7892 21.5445 30.8713 21.3073 30.8929 21.061C30.9145 20.8146 30.8749 20.5668 30.7775 20.3395V20.3282L28.7928 15.9042C28.664 15.6074 28.4427 15.3602 28.1619 15.1996C27.8811 15.0389 27.5558 14.9733 27.2347 15.0126C25.9644 15.1794 24.7982 15.803 23.9542 16.7669C23.1101 17.7309 22.646 18.9692 22.6484 20.2504C22.6484 27.6942 28.7047 33.7504 36.1484 33.7504C37.4297 33.7529 38.668 33.2887 39.6319 32.4447C40.5959 31.6007 41.2195 30.4345 41.3863 29.1642C41.4256 28.843 41.36 28.5178 41.1993 28.237C41.0386 27.9562 40.7915 27.7349 40.4947 27.606Z" fill="#1362E8"/>
</svg>

