<svg width="16" height="16" viewBox="0 0 16 16" fill="none" xmlns="http://www.w3.org/2000/svg">
<rect x="0.5" y="0.5" width="15" height="15" rx="7.5" stroke="#007083"/>
<path d="M6.69195 12.07C6.58529 12.07 6.49195 12.0433 6.41195 11.99C6.33862 11.9367 6.29195 11.8667 6.27195 11.78C6.25862 11.6867 6.28195 11.58 6.34195 11.46L9.51195 5.37V5.74H5.99195C5.85862 5.74 5.75529 5.70667 5.68195 5.64C5.60862 5.56667 5.57195 5.47 5.57195 5.35C5.57195 5.22333 5.60862 5.12667 5.68195 5.06C5.75529 4.98667 5.85862 4.95 5.99195 4.95H9.94195C10.0753 4.95 10.182 4.98667 10.262 5.06C10.3486 5.12667 10.392 5.22333 10.392 5.35C10.392 5.45667 10.3786 5.55 10.352 5.63C10.3253 5.70333 10.2853 5.79 10.232 5.89L7.21195 11.76C7.15862 11.8667 7.08862 11.9467 7.00195 12C6.92195 12.0467 6.81862 12.07 6.69195 12.07Z" fill="#007083"/>
</svg>
