<svg width="64" height="64" viewBox="0 0 64 64" fill="none" xmlns="http://www.w3.org/2000/svg">
<rect width="64" height="64" rx="32" fill="white"/>
<path d="M19.6398 23.3762C19.0147 23.4765 18.2971 23.7511 17.8172 24.0779C17.4562 24.322 16.9675 24.8188 16.7122 25.1936C16.2588 25.8692 16.0474 26.5055 16.0078 27.3205C15.977 27.9524 16.0342 28.3447 16.2323 28.9243C16.5757 29.9223 17.355 30.7983 18.3279 31.2865C18.909 31.5785 19.3757 31.6874 20.287 31.7397C21.6077 31.8225 22.6598 32.254 23.4787 33.0516C24.3636 33.9101 24.8038 34.9474 24.9271 36.4597C25.0768 38.2553 25.9 39.5323 27.3748 40.247C27.9999 40.5477 28.4622 40.6523 29.2018 40.6523C29.6684 40.6523 29.8798 40.6349 30.1835 40.5565C31.0024 40.356 31.6803 39.9637 32.2526 39.3754C33.0187 38.5822 33.3488 37.8064 33.4325 36.6253C33.4853 35.8496 33.569 35.3701 33.7363 34.8733C34.2029 33.4874 35.1538 32.5286 36.5406 32.0361C37.2714 31.7746 37.1173 31.7833 40.8857 31.7441C44.6806 31.7049 44.597 31.7092 45.3013 31.439C46.917 30.8245 48 29.2686 48 27.5602C48 27.0197 47.9428 26.6754 47.7623 26.1525C47.5025 25.3985 46.9786 24.6837 46.3315 24.1956C45.9397 23.9036 45.2485 23.5767 44.7642 23.4547C44.368 23.3545 44.3592 23.3545 40.9562 23.3545C37.5575 23.3545 37.5443 23.3545 37.1525 23.4547C35.9286 23.7598 34.9161 24.566 34.3614 25.6643C34.04 26.3093 33.9123 26.8541 33.9123 27.6037C33.9123 29.4778 33.0275 30.9814 31.469 31.7528C30.7382 32.1189 30.0691 32.2671 29.1842 32.2671C28.493 32.2671 28.0924 32.2104 27.5465 32.0274C25.9969 31.5131 25.0151 30.4628 24.5925 28.872C24.5 28.5277 24.478 28.3185 24.4604 27.6909C24.4428 27.0764 24.4164 26.8498 24.3327 26.5142C23.9409 25.0019 22.7479 23.8339 21.2115 23.4591C20.8064 23.3632 20.0052 23.3196 19.6398 23.3762Z" fill="#F54100"/>
<path d="M37.279 32.9882C36.6891 33.1146 36.3237 33.3194 35.8658 33.7683C35.5841 34.0473 35.4696 34.1998 35.3243 34.4918C34.774 35.6075 34.9677 36.8452 35.8394 37.7169C36.6759 38.5493 37.8161 38.7934 38.9167 38.3706C40.1758 37.8912 40.933 36.5315 40.6732 35.2283C40.4971 34.361 39.9248 33.6114 39.15 33.2323C38.5425 32.9403 37.8909 32.8531 37.279 32.9882Z" fill="#F54100"/>
</svg>
