<svg width="65" height="48" viewBox="0 0 65 48" fill="none" xmlns="http://www.w3.org/2000/svg">
<rect x="0.796875" width="64" height="48" rx="12" fill="#C4EAF3"/>
<path d="M35.1012 25.6191L37.2575 26.6954C37.1553 27.2061 36.8791 27.6655 36.4759 27.9953C36.0728 28.3251 35.5677 28.5048 35.0469 28.5038C33.2573 28.5018 31.5415 27.79 30.2761 26.5246C29.0107 25.2592 28.2989 23.5434 28.2969 21.7538C28.2967 21.2336 28.4768 20.7294 28.8066 20.3271C29.1363 19.9247 29.5952 19.649 30.1053 19.5469L31.1816 21.7032L30.2656 23.0663C30.1972 23.169 30.1551 23.287 30.1432 23.4098C30.1312 23.5326 30.1498 23.6564 30.1972 23.7704C30.7338 25.0457 31.7484 26.0603 33.0238 26.5969C33.138 26.6464 33.2628 26.6667 33.3869 26.6559C33.511 26.6451 33.6304 26.6036 33.7344 26.5351L35.1012 25.6191ZM42.5469 24.0038C42.5472 25.6871 42.1118 27.3419 41.2829 28.807C40.454 30.272 39.26 31.4976 37.8169 32.3643C36.3739 33.231 34.731 33.7093 33.0483 33.7527C31.3655 33.7961 29.7002 33.4031 28.2144 32.6119L25.0222 33.676C24.7579 33.7641 24.4743 33.7769 24.2031 33.7129C23.932 33.6489 23.684 33.5107 23.487 33.3137C23.29 33.1167 23.1517 32.8687 23.0877 32.5976C23.0238 32.3264 23.0365 32.0428 23.1247 31.7785L24.1887 28.5863C23.4933 27.2787 23.1048 25.8299 23.0529 24.3497C23.0009 22.8696 23.2869 21.3971 23.889 20.0439C24.4911 18.6908 25.3936 17.4926 26.5279 16.5404C27.6622 15.5881 28.9986 14.9068 30.4356 14.5481C31.8725 14.1894 33.3723 14.1628 34.8211 14.4703C36.2699 14.7777 37.6296 15.4112 38.797 16.3227C39.9643 17.2341 40.9088 18.3995 41.5585 19.7304C42.2083 21.0613 42.5463 22.5228 42.5469 24.0038ZM38.7969 26.2538C38.797 26.1145 38.7583 25.9779 38.6851 25.8593C38.6119 25.7407 38.5071 25.6449 38.3825 25.5826L35.3825 24.0826C35.2644 24.0237 35.1329 23.9971 35.0012 24.0053C34.8695 24.0135 34.7423 24.0563 34.6325 24.1294L33.2553 25.0482C32.6231 24.7006 32.1029 24.1804 31.7553 23.5482L32.6741 22.171C32.7472 22.0612 32.79 21.934 32.7982 21.8023C32.8064 21.6706 32.7798 21.5391 32.7209 21.421L31.2209 18.421C31.1588 18.2954 31.0627 18.1898 30.9435 18.1161C30.8244 18.0423 30.687 18.0034 30.5469 18.0038C29.5523 18.0038 28.5985 18.3989 27.8952 19.1022C27.192 19.8054 26.7969 20.7593 26.7969 21.7538C26.7994 23.9411 27.6693 26.0381 29.216 27.5847C30.7626 29.1313 32.8596 30.0013 35.0469 30.0038C35.5393 30.0038 36.027 29.9068 36.4819 29.7184C36.9369 29.5299 37.3503 29.2537 37.6985 28.9055C38.0467 28.5572 38.323 28.1438 38.5114 27.6889C38.6999 27.2339 38.7969 26.7463 38.7969 26.2538Z" fill="#1362E8"/>
</svg>
